# Blender v2.90.1 OBJ File: ''
# www.blender.org
mtllib knife.mtl
o Cube_Cube.002
v -0.914155 -0.172463 -0.032282
v -0.910221 0.184150 -0.063657
v -0.825929 -0.203837 -0.377832
v -0.821995 0.152775 -0.409206
v 0.821995 -0.152775 0.409206
v 1.805956 0.214951 0.627044
v 0.910221 -0.184150 0.063657
v 0.914155 0.172463 0.032282
v -0.902980 -0.156734 -0.356027
v -0.969440 -0.133100 -0.095727
v -0.966477 0.135534 -0.119361
v -0.900016 0.111900 -0.379661
v -0.041716 0.193999 0.157197
v 0.045060 -0.193961 -0.156346
v -0.045651 -0.162614 0.188571
v 0.041321 0.162565 -0.189672
v -0.876609 -0.153200 -0.005516
v -0.873054 0.169038 -0.033867
v -0.088267 0.177937 0.165698
v -0.091822 -0.144300 0.194049
v -0.787139 0.139030 -0.422496
v -0.790806 -0.193390 -0.393250
v 0.021093 -0.184183 -0.186791
v 0.017608 0.148155 -0.217856
v -0.910221 0.184150 -0.063657
v -0.821995 0.152775 -0.409206
v -0.041716 0.193999 0.157197
v 0.041321 0.162565 -0.189672
v -0.863986 0.206804 -0.071781
v -0.784262 0.178453 -0.384031
v -0.079176 0.215704 0.127789
v -0.004141 0.187300 -0.185653
v -0.825929 -0.203837 -0.377832
v -0.914155 -0.172463 -0.032282
v 0.045060 -0.193961 -0.156346
v -0.045651 -0.162614 0.188571
v -0.805736 -0.232618 -0.360322
v -0.889328 -0.202892 -0.032921
v 0.019509 -0.223260 -0.150469
v -0.066438 -0.193560 0.176333
v -0.877716 -0.098158 -0.299306
v -0.917732 -0.083928 -0.142577
v -0.915948 0.077819 -0.156808
v -0.875932 0.063588 -0.313536
vt 0.375000 1.000000
vt 0.625000 1.000000
vt 0.625000 1.000000
vt 0.375000 1.000000
vt 0.375000 0.250000
vt 0.625000 0.250000
vt 0.625000 0.250000
vt 0.375000 0.250000
vt 0.375000 0.500000
vt 0.625000 0.500000
vt 0.625000 0.750000
vt 0.375000 0.750000
vt 0.625000 0.920062
vt 0.375000 0.874938
vt 0.125000 0.750000
vt 0.125000 0.500000
vt 0.125000 0.500000
vt 0.125000 0.750000
vt 0.750685 0.500000
vt 0.795062 0.750000
vt 0.875000 0.750000
vt 0.875000 0.500000
vt 0.875000 0.500000
vt 0.875000 0.750000
vt 0.875000 0.750000
vt 0.875000 0.500000
vt 0.125000 0.750000
vt 0.125000 0.500000
vt 0.375000 0.250000
vt 0.625000 0.250000
vt 0.875000 0.750000
vt 0.795062 0.750000
vt 0.250062 0.750000
vt 0.250420 0.500000
vt 0.375000 0.375420
vt 0.625000 0.374315
vt 0.375000 0.874938
vt 0.625000 0.920062
vt 0.625000 1.000000
vt 0.375000 1.000000
vt 0.250062 0.750000
vt 0.125000 0.750000
vt 0.625000 0.374315
vt 0.375000 0.375420
vt 0.750685 0.500000
vt 0.875000 0.500000
vt 0.125000 0.500000
vt 0.250420 0.500000
vt 0.875000 0.500000
vt 0.875000 0.750000
vt 0.875000 0.750000
vt 0.875000 0.500000
vt 0.795062 0.750000
vt 0.750685 0.500000
vt 0.795062 0.750000
vt 0.750685 0.500000
vt 0.250062 0.750000
vt 0.125000 0.750000
vt 0.250062 0.750000
vt 0.250420 0.500000
vt 0.125000 0.500000
vt 0.250420 0.500000
vt 0.375000 0.000000
vt 0.625000 0.000000
vt 0.625000 0.250000
vt 0.375000 0.250000
vt 0.125000 0.750000
vt 0.125000 0.500000
vt 0.625000 1.000000
vt 0.375000 1.000000
vn -0.7310 0.0678 0.6790
vn -0.3815 -0.0768 -0.9212
vn 0.5827 -0.6803 -0.4445
vn -0.2464 0.0876 0.9652
vn 0.0000 0.0000 1.0000
vn 0.0110 0.9961 -0.0876
vn -0.7896 -0.5956 -0.1475
vn -0.5144 0.8322 -0.2069
vn -0.5328 -0.8441 -0.0594
vn -0.3162 -0.0797 -0.9453
vn -0.1612 0.7843 0.5990
vn -0.0110 -0.9961 0.0876
vn 0.2464 -0.0876 -0.9652
vn -0.1772 -0.6640 0.7264
vn -0.6045 0.0764 0.7929
vn 0.1506 0.0850 0.9849
vn 0.1262 0.8362 -0.5337
vn 0.1069 -0.9191 -0.3793
vn 0.7768 -0.0505 -0.6277
vn -0.4590 0.8666 -0.1959
vn 0.4800 0.8765 0.0355
vn -0.1930 0.6557 0.7299
vn 0.2059 0.5138 -0.8328
vn -0.2384 -0.2144 0.9472
vn -0.7687 -0.6242 -0.1396
vn 0.7537 -0.6064 0.2533
vn 0.2319 -0.3817 -0.8947
vn -0.9691 -0.0110 -0.2464
vn -0.7767 0.5778 -0.2508
vn -0.9283 0.0427 0.3693
vn -0.6380 -0.0605 -0.7676
usemtl Base
s off
f 1/1/1 2/2/1 11/3/1 10/4/1
f 3/5/2 4/6/2 21/7/2 22/8/2
f 7/9/3 8/10/3 6/11/3 5/12/3
f 5/12/4 6/11/4 13/13/4 15/14/4
f 1/15/5 3/16/5 33/17/5 34/18/5
f 8/10/6 16/19/6 13/20/6 6/11/6
f 11/21/7 12/22/7 44/23/7 43/24/7
f 2/25/8 4/26/8 12/22/8 11/21/8
f 3/16/9 1/15/9 10/27/9 9/28/9
f 4/6/10 3/5/10 9/29/10 12/30/10
f 13/20/11 2/25/11 18/31/11 19/32/11
f 15/33/12 14/34/12 7/9/12 5/12/12
f 14/35/13 16/36/13 8/10/13 7/9/13
f 20/37/4 19/38/4 18/39/4 17/40/4
f 1/15/14 15/33/14 20/41/14 17/42/14
f 2/2/15 1/1/15 17/40/15 18/39/15
f 15/14/16 13/13/16 19/38/16 20/37/16
f 22/8/13 21/7/13 24/43/13 23/44/13
f 4/26/17 16/19/17 24/45/17 21/46/17
f 14/34/18 3/16/18 22/47/18 23/48/18
f 16/36/19 14/35/19 23/44/19 24/43/19
f 26/49/20 25/50/20 29/51/20 30/52/20
f 2/25/5 13/20/5 27/53/5 25/50/5
f 16/19/5 4/26/5 26/49/5 28/54/5
f 13/20/5 16/19/5 28/54/5 27/53/5
f 4/26/5 2/25/5 25/50/5 26/49/5
f 31/55/6 32/56/6 30/52/6 29/51/6
f 27/53/21 28/54/21 32/56/21 31/55/21
f 25/50/22 27/53/22 31/55/22 29/51/22
f 28/54/23 26/49/23 30/52/23 32/56/23
f 36/57/24 34/18/24 38/58/24 40/59/24
f 15/33/5 1/15/5 34/18/5 36/57/5
f 14/34/5 15/33/5 36/57/5 35/60/5
f 3/16/5 14/34/5 35/60/5 33/17/5
f 37/61/12 39/62/12 40/59/12 38/58/12
f 34/18/25 33/17/25 37/61/25 38/58/25
f 35/60/26 36/57/26 40/59/26 39/62/26
f 33/17/27 35/60/27 39/62/27 37/61/27
f 42/63/28 43/64/28 44/65/28 41/66/28
f 9/28/29 10/27/29 42/67/29 41/68/29
f 12/30/30 9/29/30 41/66/30 44/65/30
f 10/4/31 11/3/31 43/69/31 42/70/31
